<mxfile host="app.diagrams.net" modified="2021-11-22T04:46:12.925Z" agent="5.0 (Windows NT 10.0; Win64; x64) AppleWebKit/537.36 (KHTML, like Gecko) Chrome/95.0.4638.54 Safari/537.36" etag="ZXRGMfP7i-z-AAw_NI7L" version="15.7.3" type="github">
  <diagram id="C5RBs43oDa-KdzZeNtuy" name="Page-1">
    <mxGraphModel dx="1422" dy="762" grid="0" gridSize="10" guides="1" tooltips="1" connect="1" arrows="1" fold="1" page="1" pageScale="1" pageWidth="827" pageHeight="1169" math="0" shadow="0">
      <root>
        <mxCell id="WIyWlLk6GJQsqaUBKTNV-0" />
        <mxCell id="WIyWlLk6GJQsqaUBKTNV-1" parent="WIyWlLk6GJQsqaUBKTNV-0" />
        <mxCell id="C6vEj6Gq7S2MROak1xsJ-6" value="" style="edgeStyle=orthogonalEdgeStyle;rounded=0;orthogonalLoop=1;jettySize=auto;html=1;" parent="WIyWlLk6GJQsqaUBKTNV-1" source="C6vEj6Gq7S2MROak1xsJ-0" target="C6vEj6Gq7S2MROak1xsJ-5" edge="1">
          <mxGeometry relative="1" as="geometry" />
        </mxCell>
        <mxCell id="C6vEj6Gq7S2MROak1xsJ-0" value="接受邮件，筛选当天包含PDF文件的邮件" style="rounded=0;whiteSpace=wrap;html=1;" parent="WIyWlLk6GJQsqaUBKTNV-1" vertex="1">
          <mxGeometry x="300" y="50" width="120" height="60" as="geometry" />
        </mxCell>
        <mxCell id="C6vEj6Gq7S2MROak1xsJ-1" value="下载附件，并提取邮件中的Ship To字段的地址" style="rounded=0;whiteSpace=wrap;html=1;" parent="WIyWlLk6GJQsqaUBKTNV-1" vertex="1">
          <mxGeometry x="300" y="200" width="120" height="60" as="geometry" />
        </mxCell>
        <mxCell id="C6vEj6Gq7S2MROak1xsJ-9" style="edgeStyle=orthogonalEdgeStyle;rounded=0;orthogonalLoop=1;jettySize=auto;html=1;exitX=0.5;exitY=1;exitDx=0;exitDy=0;entryX=0.5;entryY=0;entryDx=0;entryDy=0;" parent="WIyWlLk6GJQsqaUBKTNV-1" source="C6vEj6Gq7S2MROak1xsJ-3" target="C6vEj6Gq7S2MROak1xsJ-8" edge="1">
          <mxGeometry relative="1" as="geometry" />
        </mxCell>
        <mxCell id="C6vEj6Gq7S2MROak1xsJ-3" value="Python代码解析PDF内容，包含订单号，客户公司，订单日期，shipto地址，订单明细数据，partnum【desciption字段匹配】" style="rounded=0;whiteSpace=wrap;html=1;" parent="WIyWlLk6GJQsqaUBKTNV-1" vertex="1">
          <mxGeometry x="267.5" y="280" width="185" height="60" as="geometry" />
        </mxCell>
        <mxCell id="C6vEj6Gq7S2MROak1xsJ-4" value="" style="edgeStyle=orthogonalEdgeStyle;rounded=0;orthogonalLoop=1;jettySize=auto;html=1;" parent="WIyWlLk6GJQsqaUBKTNV-1" source="C6vEj6Gq7S2MROak1xsJ-1" target="C6vEj6Gq7S2MROak1xsJ-3" edge="1">
          <mxGeometry relative="1" as="geometry" />
        </mxCell>
        <mxCell id="C6vEj6Gq7S2MROak1xsJ-7" value="" style="edgeStyle=orthogonalEdgeStyle;rounded=0;orthogonalLoop=1;jettySize=auto;html=1;" parent="WIyWlLk6GJQsqaUBKTNV-1" source="C6vEj6Gq7S2MROak1xsJ-5" target="C6vEj6Gq7S2MROak1xsJ-1" edge="1">
          <mxGeometry relative="1" as="geometry" />
        </mxCell>
        <mxCell id="C6vEj6Gq7S2MROak1xsJ-5" value="开始循环" style="rhombus;whiteSpace=wrap;html=1;" parent="WIyWlLk6GJQsqaUBKTNV-1" vertex="1">
          <mxGeometry x="320" y="140" width="80" height="40" as="geometry" />
        </mxCell>
        <mxCell id="C6vEj6Gq7S2MROak1xsJ-11" value="" style="edgeStyle=orthogonalEdgeStyle;rounded=0;orthogonalLoop=1;jettySize=auto;html=1;" parent="WIyWlLk6GJQsqaUBKTNV-1" source="C6vEj6Gq7S2MROak1xsJ-8" target="C6vEj6Gq7S2MROak1xsJ-10" edge="1">
          <mxGeometry relative="1" as="geometry" />
        </mxCell>
        <mxCell id="C6vEj6Gq7S2MROak1xsJ-8" value="将数据自动写入到临时excel数据表中" style="rounded=0;whiteSpace=wrap;html=1;" parent="WIyWlLk6GJQsqaUBKTNV-1" vertex="1">
          <mxGeometry x="300" y="370" width="120" height="60" as="geometry" />
        </mxCell>
        <mxCell id="C6vEj6Gq7S2MROak1xsJ-13" style="edgeStyle=orthogonalEdgeStyle;rounded=0;orthogonalLoop=1;jettySize=auto;html=1;exitX=0.5;exitY=1;exitDx=0;exitDy=0;entryX=0.5;entryY=0;entryDx=0;entryDy=0;" parent="WIyWlLk6GJQsqaUBKTNV-1" source="C6vEj6Gq7S2MROak1xsJ-10" target="C6vEj6Gq7S2MROak1xsJ-12" edge="1">
          <mxGeometry relative="1" as="geometry" />
        </mxCell>
        <mxCell id="C6vEj6Gq7S2MROak1xsJ-10" value="机器人根据对照表将数据一一转换成模板表" style="rounded=0;whiteSpace=wrap;html=1;" parent="WIyWlLk6GJQsqaUBKTNV-1" vertex="1">
          <mxGeometry x="295" y="460" width="130" height="40" as="geometry" />
        </mxCell>
        <mxCell id="C6vEj6Gq7S2MROak1xsJ-15" value="" style="edgeStyle=orthogonalEdgeStyle;rounded=0;orthogonalLoop=1;jettySize=auto;html=1;" parent="WIyWlLk6GJQsqaUBKTNV-1" source="C6vEj6Gq7S2MROak1xsJ-12" target="C6vEj6Gq7S2MROak1xsJ-14" edge="1">
          <mxGeometry relative="1" as="geometry" />
        </mxCell>
        <mxCell id="C6vEj6Gq7S2MROak1xsJ-12" value="通过sql将邮件中ship to地址中的国家找出所有国家的adresscode数据，然后模糊比对，找出匹配最高的地址code，如果有多个则全部写入" style="rounded=0;whiteSpace=wrap;html=1;" parent="WIyWlLk6GJQsqaUBKTNV-1" vertex="1">
          <mxGeometry x="257.5" y="525" width="205" height="60" as="geometry" />
        </mxCell>
        <mxCell id="C6vEj6Gq7S2MROak1xsJ-17" style="edgeStyle=orthogonalEdgeStyle;rounded=0;orthogonalLoop=1;jettySize=auto;html=1;exitX=0.5;exitY=1;exitDx=0;exitDy=0;entryX=0.5;entryY=0;entryDx=0;entryDy=0;" parent="WIyWlLk6GJQsqaUBKTNV-1" source="C6vEj6Gq7S2MROak1xsJ-14" target="C6vEj6Gq7S2MROak1xsJ-16" edge="1">
          <mxGeometry relative="1" as="geometry" />
        </mxCell>
        <mxCell id="C6vEj6Gq7S2MROak1xsJ-14" value="无法找到的字段【无数据源数据】则直接留空，将模板表发送邮件给发件人" style="rounded=0;whiteSpace=wrap;html=1;" parent="WIyWlLk6GJQsqaUBKTNV-1" vertex="1">
          <mxGeometry x="300" y="610" width="120" height="60" as="geometry" />
        </mxCell>
        <mxCell id="C6vEj6Gq7S2MROak1xsJ-18" style="edgeStyle=orthogonalEdgeStyle;rounded=0;orthogonalLoop=1;jettySize=auto;html=1;exitX=1;exitY=0.5;exitDx=0;exitDy=0;entryX=1;entryY=0.5;entryDx=0;entryDy=0;" parent="WIyWlLk6GJQsqaUBKTNV-1" source="C6vEj6Gq7S2MROak1xsJ-16" target="C6vEj6Gq7S2MROak1xsJ-5" edge="1">
          <mxGeometry relative="1" as="geometry">
            <Array as="points">
              <mxPoint x="550" y="720" />
              <mxPoint x="550" y="160" />
            </Array>
          </mxGeometry>
        </mxCell>
        <mxCell id="C6vEj6Gq7S2MROak1xsJ-19" value="继续下一封邮件处理" style="edgeLabel;html=1;align=center;verticalAlign=middle;resizable=0;points=[];" parent="C6vEj6Gq7S2MROak1xsJ-18" vertex="1" connectable="0">
          <mxGeometry x="0.1643" y="2" relative="1" as="geometry">
            <mxPoint as="offset" />
          </mxGeometry>
        </mxCell>
        <mxCell id="C6vEj6Gq7S2MROak1xsJ-16" value="当前邮件pdf处理结束" style="rounded=0;whiteSpace=wrap;html=1;" parent="WIyWlLk6GJQsqaUBKTNV-1" vertex="1">
          <mxGeometry x="300" y="700" width="120" height="40" as="geometry" />
        </mxCell>
        <mxCell id="C6vEj6Gq7S2MROak1xsJ-20" value="SRW-PDF处理流程" style="rounded=0;whiteSpace=wrap;html=1;fillColor=#dae8fc;strokeColor=#6c8ebf;" parent="WIyWlLk6GJQsqaUBKTNV-1" vertex="1">
          <mxGeometry x="50" y="30" width="120" height="60" as="geometry" />
        </mxCell>
      </root>
    </mxGraphModel>
  </diagram>
</mxfile>
